<?xml version="1.0" standalone="no"?><!-- Generator: Gravit.io --><svg xmlns="http://www.w3.org/2000/svg" xmlns:xlink="http://www.w3.org/1999/xlink" style="isolation:isolate" viewBox="0 0 380 647" width="380" height="647"><defs><clipPath id="_clipPath_9GXX83CGxPpLaAC8zy2FRXn9oxo5g9nw"><rect width="380" height="647"/></clipPath></defs><g clip-path="url(#_clipPath_9GXX83CGxPpLaAC8zy2FRXn9oxo5g9nw)"><path d="M 22.16 0 L 337.84 0 C 350.07 0 360 9.93 360 22.16 L 360 624.84 C 360 637.07 350.07 647 337.84 647 L 22.16 647 C 9.93 647 0 637.07 0 624.84 L 0 22.16 C 0 9.93 9.93 0 22.16 0 Z" style="stroke:none;fill:#C81A5C;stroke-miterlimit:10;"/><path d="M 29.6 20 L 330.4 20 C 335.698 20 340 24.302 340 29.6 L 340 617.4 C 340 622.698 335.698 627 330.4 627 L 29.6 627 C 24.302 627 20 622.698 20 617.4 L 20 29.6 C 20 24.302 24.302 20 29.6 20 Z" style="fill:none;stroke:#490F56;stroke-width:3;stroke-linecap:square;stroke-miterlimit:3;"/><path d=" M 360 182.816 C 371.273 181.38 380 171.742 380 160.082 L 380 22.918 C 380 10.269 369.731 0 357.082 0 L 22.918 0 C 10.269 0 0 10.269 0 22.918 L 0 169 L 75 169 L 180.925 102.201 C 183.726 100.434 188.689 99 192 99 L 360 99 L 360 182.816 Z " fill="rgb(255,0,98)"/><path d=" M 0 169 L 0 189 L 77 189 C 80.311 189 85.289 187.59 88.108 185.853 L 195 120 L 360 119.333 L 360 98.333 L 192 98.977 C 188.688 98.99 183.726 100.434 180.925 102.201 L 75 169 L 0 169 Z " fill="rgb(73,15,86)"/><rect x="360" y="98.333" width="20" height="528.667" transform="matrix(1,0,0,1,0,0)" fill="rgb(200,26,92)"/><rect x="360" y="98.333" width="8" height="528.667" transform="matrix(1,0,0,1,0,0)" fill="rgb(0,0,0)" fill-opacity="0.2"/><path d=" M 20 56 C 20 36.131 36.131 20 56 20 C 75.869 20 92 36.131 92 56 C 92 75.869 75.869 92 56 92 C 36.131 92 20 75.869 20 56 Z " fill="rgb(235,235,235)"/><path d=" M 25 56 C 25 38.891 38.891 25 56 25 C 73.109 25 87 38.891 87 56 C 87 73.109 73.109 87 56 87 C 38.891 87 25 73.109 25 56 Z " fill="rgb(126,198,242)"/><path d=" M 80.761 37 C 84.675 42.195 87 48.656 87 55.655 C 87 72.765 73.109 86.655 56 86.655 C 47.77 86.655 40.284 83.441 34.739 78.193 C 38.68 79.788 42.99 80.655 47.5 80.655 C 66.541 80.655 82 65.196 82 46.155 C 82 42.985 81.571 39.913 80.761 37 Z " fill="rgb(0,0,0)" fill-opacity="0.1"/><path d=" M 38 43 C 38 39.689 40.689 37 44 37 C 47.311 37 50 39.689 50 43 C 50 46.311 47.311 49 44 49 C 40.689 49 38 46.311 38 43 Z " fill="rgb(235,235,235)" fill-opacity="0.5"/><g id="Group"><path d=" M 138 34 C 138 29.033 142.033 25 147 25 C 151.967 25 156 29.033 156 34 C 156 38.967 151.967 43 147 43 C 142.033 43 138 38.967 138 34 Z " fill="rgb(235,235,235)"/><path d=" M 140 34 C 140 30.137 143.137 27 147 27 C 150.863 27 154 30.137 154 34 C 154 37.863 150.863 41 147 41 C 143.137 41 140 37.863 140 34 Z " fill="rgb(255,0,0)"/><path d=" M 142 31 C 142 29.896 142.896 29 144 29 C 145.104 29 146 29.896 146 31 C 146 32.104 145.104 33 144 33 C 142.896 33 142 32.104 142 31 Z " fill="rgb(255,255,255)" fill-opacity="0.5"/></g><g id="Group"><path d=" M 165 34 C 165 29.033 169.033 25 174 25 C 178.967 25 183 29.033 183 34 C 183 38.967 178.967 43 174 43 C 169.033 43 165 38.967 165 34 Z " fill="rgb(235,235,235)"/><path d=" M 167 34 C 167 30.137 170.137 27 174 27 C 177.863 27 181 30.137 181 34 C 181 37.863 177.863 41 174 41 C 170.137 41 167 37.863 167 34 Z " fill="rgb(255,221,0)"/><path d=" M 169 31 C 169 29.896 169.896 29 171 29 C 172.104 29 173 29.896 173 31 C 173 32.104 172.104 33 171 33 C 169.896 33 169 32.104 169 31 Z " fill="rgb(255,255,255)" fill-opacity="0.5"/></g><g id="Group"><path d=" M 192 34 C 192 29.033 196.033 25 201 25 C 205.967 25 210 29.033 210 34 C 210 38.967 205.967 43 201 43 C 196.033 43 192 38.967 192 34 Z " fill="rgb(235,235,235)"/><path d=" M 194 34 C 194 30.137 197.137 27 201 27 C 204.863 27 208 30.137 208 34 C 208 37.863 204.863 41 201 41 C 197.137 41 194 37.863 194 34 Z " fill="rgb(6,232,88)"/><path d=" M 196 31 C 196 29.896 196.896 29 198 29 C 199.104 29 200 29.896 200 31 C 200 32.104 199.104 33 198 33 C 196.896 33 196 32.104 196 31 Z " fill="rgb(255,255,255)" fill-opacity="0.5"/></g><path d="M 60.633 231 L 299.367 231 C 310.755 231 320 240.245 320 251.633 L 320 508.367 C 320 519.755 310.755 529 299.367 529 L 81.266 529 C 58.491 529 40 510.509 40 487.734 L 40 251.633 C 40 240.245 49.245 231 60.633 231 Z" style="stroke:none;fill:#D2D2D2;stroke-linecap:square;stroke-miterlimit:3;"/><path d="M 64.857 247 L 295.143 247 C 300.031 247 304 250.969 304 255.857 L 304 486.143 C 304 491.031 300.031 495 295.143 495 L 82.571 495 C 67.906 495 56 483.094 56 468.429 L 56 255.857 C 56 250.969 59.969 247 64.857 247 Z" style="stroke:none;fill:#EBEBEB;stroke-linecap:square;stroke-miterlimit:3;"/><line x1="261.333" y1="503" x2="293" y2="503" vector-effect="non-scaling-stroke" stroke-width="2" stroke="rgb(73,15,86)" stroke-linejoin="miter" stroke-linecap="round" stroke-miterlimit="3"/><line x1="261.333" y1="512" x2="293" y2="512" vector-effect="non-scaling-stroke" stroke-width="2" stroke="rgb(73,15,86)" stroke-linejoin="miter" stroke-linecap="round" stroke-miterlimit="3"/><line x1="261.333" y1="521" x2="293" y2="521" vector-effect="non-scaling-stroke" stroke-width="2" stroke="rgb(73,15,86)" stroke-linejoin="miter" stroke-linecap="round" stroke-miterlimit="3"/></g></svg>