<?xml version="1.0" standalone="no"?><!-- Generator: Gravit.io --><svg xmlns="http://www.w3.org/2000/svg" xmlns:xlink="http://www.w3.org/1999/xlink" style="isolation:isolate" viewBox="0 0 360 647" width="360" height="647"><defs><clipPath id="_clipPath_DBJqk4t3vFJSYmLwKI1MlaTTvJB66DKo"><rect width="360" height="647"/></clipPath></defs><g clip-path="url(#_clipPath_DBJqk4t3vFJSYmLwKI1MlaTTvJB66DKo)"><path d=" M 0 117 L 0 626.717 C 0 637.912 9.088 647 20.283 647 L 339.717 647 C 350.912 647 360 637.912 360 626.717 L 360 186 L 360 177.636 L 360 177 C 360 172.585 356.415 169 352 169 L 286 169 L 180.075 102.201 C 177.274 100.434 172.311 99 169 99 L 0 99 L 0 105 L 0 117 Z " fill="rgb(200,26,92)"/><path d=" M 30.5 626 L 330.5 626 C 336.019 626 340.5 621.519 340.5 616 L 340.5 202 C 340.5 196.481 336.019 192 330.5 192 L 278.5 192 C 272.981 192 264.7 189.625 260.02 186.7 L 164.98 127.3 C 160.3 124.375 152.019 122 146.5 122 L 30.5 122 C 24.981 122 20.5 126.481 20.5 132 L 20.5 616 C 20.5 621.519 24.981 626 30.5 626 Z " fill="none" vector-effect="non-scaling-stroke" stroke-width="3" stroke="rgb(73,15,86)" stroke-linejoin="miter" stroke-linecap="square" stroke-miterlimit="3"/><path d="M 300.5 233 L 60.5 233 C 49.462 233 40.5 241.962 40.5 253 L 40.5 585 C 40.5 596.038 49.462 605 60.5 605 L 280.5 605 C 302.577 605 320.5 587.077 320.5 565 L 320.5 253 C 320.5 241.962 311.538 233 300.5 233 Z" style="stroke:none;fill:#D2D2D2;stroke-miterlimit:10;"/><path d="M 294.376 247 L 66.624 247 C 61.036 247 56.5 251.536 56.5 257.124 L 56.5 560.876 C 56.5 566.464 61.036 571 66.624 571 L 274.129 571 C 290.891 571 304.5 557.391 304.5 540.629 L 304.5 257.124 C 304.5 251.536 299.964 247 294.376 247 Z" style="stroke:none;fill:#EBEBEB;stroke-miterlimit:10;"/></g></svg>